<?xml version="1.0" standalone="no"?>
<!DOCTYPE svg PUBLIC "-//W3C//DTD SVG 1.1//EN"
"http://www.w3.org/Graphics/SVG/1.1/DTD/svg11.dtd">
<svg xmlns="http://www.w3.org/2000/svg" version="1.1">
	<circle cx="705" cy="590" r="4" stroke="blue" stroke-width="2" fill="blue" />
	<text x="705" y="580" fill="black">1</text>
	<circle cx="78" cy="2" r="4" stroke="red" stroke-width="2" fill="red" />
	<text x="78" y="-8" fill="black">2</text>
	<circle cx="228" cy="514" r="4" stroke="red" stroke-width="2" fill="red" />
	<text x="228" y="504" fill="black">3</text>
	<circle cx="862" cy="58" r="4" stroke="blue" stroke-width="2" fill="blue" />
	<text x="862" y="48" fill="black">4</text>
	<circle cx="852" cy="406" r="4" stroke="blue" stroke-width="2" fill="blue" />
	<text x="852" y="396" fill="black">5</text>
	<circle cx="855" cy="48" r="4" stroke="blue" stroke-width="2" fill="blue" />
	<text x="855" y="38" fill="black">6</text>
	<circle cx="628" cy="207" r="4" stroke="blue" stroke-width="2" fill="blue" />
	<text x="628" y="197" fill="black">7</text>
	<circle cx="574" cy="402" r="4" stroke="blue" stroke-width="2" fill="blue" />
	<text x="574" y="392" fill="black">8</text>
	<circle cx="273" cy="54" r="4" stroke="red" stroke-width="2" fill="red" />
	<text x="273" y="44" fill="black">9</text>
	<circle cx="276" cy="549" r="4" stroke="red" stroke-width="2" fill="red" />
	<text x="276" y="539" fill="black">10</text>
	<circle cx="99" cy="167" r="4" stroke="red" stroke-width="2" fill="red" />
	<text x="99" y="157" fill="black">11</text>
	<circle cx="812" cy="212" r="4" stroke="blue" stroke-width="2" fill="blue" />
	<text x="812" y="202" fill="black">12</text>
	<circle cx="797" cy="568" r="4" stroke="blue" stroke-width="2" fill="blue" />
	<text x="797" y="558" fill="black">13</text>
	<circle cx="842" cy="372" r="4" stroke="blue" stroke-width="2" fill="blue" />
	<text x="842" y="362" fill="black">14</text>
	<circle cx="101" cy="547" r="4" stroke="red" stroke-width="2" fill="red" />
	<text x="101" y="537" fill="black">15</text>
	<circle cx="267" cy="411" r="4" stroke="red" stroke-width="2" fill="red" />
	<text x="267" y="401" fill="black">16</text>
	<circle cx="259" cy="559" r="4" stroke="red" stroke-width="2" fill="red" />
	<text x="259" y="549" fill="black">17</text>
	<circle cx="98" cy="411" r="4" stroke="red" stroke-width="2" fill="red" />
	<text x="98" y="401" fill="black">18</text>
	<circle cx="664" cy="596" r="4" stroke="blue" stroke-width="2" fill="blue" />
	<text x="664" y="586" fill="black">19</text>
	<circle cx="301" cy="337" r="4" stroke="red" stroke-width="2" fill="red" />
	<text x="301" y="327" fill="black">20</text>
	<line x1="705" y1="590" x2="664" y2="596" style="stroke:gray;stroke-width:1"/>
	<line x1="705" y1="590" x2="78" y2="2" style="stroke:red;stroke-width:1"/>
	<line x1="705" y1="590" x2="628" y2="207" style="stroke:gray;stroke-width:1"/>
	<line x1="705" y1="590" x2="259" y2="559" style="stroke:red;stroke-width:1"/>
	<line x1="705" y1="590" x2="99" y2="167" style="stroke:red;stroke-width:1"/>
	<line x1="705" y1="590" x2="228" y2="514" style="stroke:red;stroke-width:1"/>
	<line x1="705" y1="590" x2="842" y2="372" style="stroke:gray;stroke-width:1"/>
	<line x1="705" y1="590" x2="301" y2="337" style="stroke:red;stroke-width:1"/>
	<line x1="705" y1="590" x2="852" y2="406" style="stroke:gray;stroke-width:1"/>
	<line x1="705" y1="590" x2="797" y2="568" style="stroke:gray;stroke-width:1"/>
	<line x1="705" y1="590" x2="267" y2="411" style="stroke:red;stroke-width:1"/>
	<line x1="705" y1="590" x2="862" y2="58" style="stroke:gray;stroke-width:1"/>
	<line x1="705" y1="590" x2="273" y2="54" style="stroke:red;stroke-width:1"/>
	<line x1="705" y1="590" x2="276" y2="549" style="stroke:red;stroke-width:1"/>
	<line x1="78" y1="2" x2="664" y2="596" style="stroke:red;stroke-width:1"/>
	<line x1="78" y1="2" x2="101" y2="547" style="stroke:gray;stroke-width:1"/>
	<line x1="78" y1="2" x2="855" y2="48" style="stroke:red;stroke-width:1"/>
	<line x1="78" y1="2" x2="852" y2="406" style="stroke:red;stroke-width:1"/>
	<line x1="78" y1="2" x2="228" y2="514" style="stroke:gray;stroke-width:1"/>
	<line x1="78" y1="2" x2="301" y2="337" style="stroke:gray;stroke-width:1"/>
	<line x1="78" y1="2" x2="99" y2="167" style="stroke:gray;stroke-width:1"/>
	<line x1="78" y1="2" x2="797" y2="568" style="stroke:red;stroke-width:1"/>
	<line x1="78" y1="2" x2="574" y2="402" style="stroke:red;stroke-width:1"/>
	<line x1="78" y1="2" x2="862" y2="58" style="stroke:red;stroke-width:1"/>
	<line x1="78" y1="2" x2="628" y2="207" style="stroke:red;stroke-width:1"/>
	<line x1="78" y1="2" x2="259" y2="559" style="stroke:gray;stroke-width:1"/>
	<line x1="78" y1="2" x2="273" y2="54" style="stroke:gray;stroke-width:1"/>
	<line x1="78" y1="2" x2="842" y2="372" style="stroke:red;stroke-width:1"/>
	<line x1="78" y1="2" x2="267" y2="411" style="stroke:gray;stroke-width:1"/>
	<line x1="228" y1="514" x2="276" y2="549" style="stroke:gray;stroke-width:1"/>
	<line x1="228" y1="514" x2="628" y2="207" style="stroke:red;stroke-width:1"/>
	<line x1="228" y1="514" x2="259" y2="559" style="stroke:gray;stroke-width:1"/>
	<line x1="228" y1="514" x2="664" y2="596" style="stroke:red;stroke-width:1"/>
	<line x1="228" y1="514" x2="862" y2="58" style="stroke:red;stroke-width:1"/>
	<line x1="228" y1="514" x2="855" y2="48" style="stroke:red;stroke-width:1"/>
	<line x1="228" y1="514" x2="98" y2="411" style="stroke:gray;stroke-width:1"/>
	<line x1="228" y1="514" x2="273" y2="54" style="stroke:gray;stroke-width:1"/>
	<line x1="228" y1="514" x2="842" y2="372" style="stroke:red;stroke-width:1"/>
	<line x1="228" y1="514" x2="574" y2="402" style="stroke:red;stroke-width:1"/>
	<line x1="228" y1="514" x2="301" y2="337" style="stroke:gray;stroke-width:1"/>
	<line x1="228" y1="514" x2="852" y2="406" style="stroke:red;stroke-width:1"/>
	<line x1="228" y1="514" x2="267" y2="411" style="stroke:gray;stroke-width:1"/>
	<line x1="228" y1="514" x2="797" y2="568" style="stroke:red;stroke-width:1"/>
	<line x1="862" y1="58" x2="276" y2="549" style="stroke:red;stroke-width:1"/>
	<line x1="862" y1="58" x2="273" y2="54" style="stroke:red;stroke-width:1"/>
	<line x1="862" y1="58" x2="267" y2="411" style="stroke:red;stroke-width:1"/>
	<line x1="862" y1="58" x2="301" y2="337" style="stroke:red;stroke-width:1"/>
	<line x1="862" y1="58" x2="259" y2="559" style="stroke:red;stroke-width:1"/>
	<line x1="862" y1="58" x2="628" y2="207" style="stroke:gray;stroke-width:1"/>
	<line x1="862" y1="58" x2="855" y2="48" style="stroke:gray;stroke-width:1"/>
	<line x1="862" y1="58" x2="812" y2="212" style="stroke:gray;stroke-width:1"/>
	<line x1="862" y1="58" x2="852" y2="406" style="stroke:gray;stroke-width:1"/>
	<line x1="862" y1="58" x2="842" y2="372" style="stroke:gray;stroke-width:1"/>
	<line x1="862" y1="58" x2="101" y2="547" style="stroke:red;stroke-width:1"/>
	<line x1="862" y1="58" x2="574" y2="402" style="stroke:gray;stroke-width:1"/>
	<line x1="852" y1="406" x2="797" y2="568" style="stroke:gray;stroke-width:1"/>
	<line x1="852" y1="406" x2="99" y2="167" style="stroke:red;stroke-width:1"/>
	<line x1="852" y1="406" x2="301" y2="337" style="stroke:red;stroke-width:1"/>
	<line x1="852" y1="406" x2="101" y2="547" style="stroke:red;stroke-width:1"/>
	<line x1="852" y1="406" x2="267" y2="411" style="stroke:red;stroke-width:1"/>
	<line x1="852" y1="406" x2="276" y2="549" style="stroke:red;stroke-width:1"/>
	<line x1="852" y1="406" x2="98" y2="411" style="stroke:red;stroke-width:1"/>
	<line x1="852" y1="406" x2="664" y2="596" style="stroke:gray;stroke-width:1"/>
	<line x1="852" y1="406" x2="273" y2="54" style="stroke:red;stroke-width:1"/>
	<line x1="852" y1="406" x2="812" y2="212" style="stroke:gray;stroke-width:1"/>
	<line x1="852" y1="406" x2="842" y2="372" style="stroke:gray;stroke-width:1"/>
	<line x1="852" y1="406" x2="259" y2="559" style="stroke:red;stroke-width:1"/>
	<line x1="852" y1="406" x2="574" y2="402" style="stroke:gray;stroke-width:1"/>
	<line x1="855" y1="48" x2="276" y2="549" style="stroke:red;stroke-width:1"/>
	<line x1="855" y1="48" x2="273" y2="54" style="stroke:red;stroke-width:1"/>
	<line x1="855" y1="48" x2="574" y2="402" style="stroke:gray;stroke-width:1"/>
	<line x1="855" y1="48" x2="98" y2="411" style="stroke:red;stroke-width:1"/>
	<line x1="855" y1="48" x2="267" y2="411" style="stroke:red;stroke-width:1"/>
	<line x1="855" y1="48" x2="259" y2="559" style="stroke:red;stroke-width:1"/>
	<line x1="855" y1="48" x2="101" y2="547" style="stroke:red;stroke-width:1"/>
	<line x1="855" y1="48" x2="301" y2="337" style="stroke:red;stroke-width:1"/>
	<line x1="855" y1="48" x2="842" y2="372" style="stroke:gray;stroke-width:1"/>
	<line x1="855" y1="48" x2="99" y2="167" style="stroke:red;stroke-width:1"/>
	<line x1="855" y1="48" x2="797" y2="568" style="stroke:gray;stroke-width:1"/>
	<line x1="628" y1="207" x2="101" y2="547" style="stroke:red;stroke-width:1"/>
	<line x1="628" y1="207" x2="259" y2="559" style="stroke:red;stroke-width:1"/>
	<line x1="628" y1="207" x2="267" y2="411" style="stroke:red;stroke-width:1"/>
	<line x1="628" y1="207" x2="99" y2="167" style="stroke:red;stroke-width:1"/>
	<line x1="628" y1="207" x2="797" y2="568" style="stroke:gray;stroke-width:1"/>
	<line x1="628" y1="207" x2="842" y2="372" style="stroke:gray;stroke-width:1"/>
	<line x1="628" y1="207" x2="273" y2="54" style="stroke:red;stroke-width:1"/>
	<line x1="628" y1="207" x2="276" y2="549" style="stroke:red;stroke-width:1"/>
	<line x1="628" y1="207" x2="664" y2="596" style="stroke:gray;stroke-width:1"/>
	<line x1="628" y1="207" x2="98" y2="411" style="stroke:red;stroke-width:1"/>
	<line x1="574" y1="402" x2="273" y2="54" style="stroke:red;stroke-width:1"/>
	<line x1="574" y1="402" x2="664" y2="596" style="stroke:gray;stroke-width:1"/>
	<line x1="574" y1="402" x2="812" y2="212" style="stroke:gray;stroke-width:1"/>
	<line x1="574" y1="402" x2="99" y2="167" style="stroke:red;stroke-width:1"/>
	<line x1="574" y1="402" x2="98" y2="411" style="stroke:red;stroke-width:1"/>
	<line x1="574" y1="402" x2="267" y2="411" style="stroke:red;stroke-width:1"/>
	<line x1="574" y1="402" x2="842" y2="372" style="stroke:gray;stroke-width:1"/>
	<line x1="574" y1="402" x2="797" y2="568" style="stroke:gray;stroke-width:1"/>
	<line x1="574" y1="402" x2="101" y2="547" style="stroke:red;stroke-width:1"/>
	<line x1="574" y1="402" x2="301" y2="337" style="stroke:red;stroke-width:1"/>
	<line x1="273" y1="54" x2="98" y2="411" style="stroke:gray;stroke-width:1"/>
	<line x1="273" y1="54" x2="842" y2="372" style="stroke:red;stroke-width:1"/>
	<line x1="273" y1="54" x2="267" y2="411" style="stroke:gray;stroke-width:1"/>
	<line x1="273" y1="54" x2="301" y2="337" style="stroke:gray;stroke-width:1"/>
	<line x1="273" y1="54" x2="797" y2="568" style="stroke:red;stroke-width:1"/>
	<line x1="273" y1="54" x2="99" y2="167" style="stroke:gray;stroke-width:1"/>
	<line x1="273" y1="54" x2="812" y2="212" style="stroke:red;stroke-width:1"/>
	<line x1="273" y1="54" x2="664" y2="596" style="stroke:red;stroke-width:1"/>
	<line x1="276" y1="549" x2="664" y2="596" style="stroke:red;stroke-width:1"/>
	<line x1="276" y1="549" x2="842" y2="372" style="stroke:red;stroke-width:1"/>
	<line x1="276" y1="549" x2="267" y2="411" style="stroke:gray;stroke-width:1"/>
	<line x1="276" y1="549" x2="101" y2="547" style="stroke:gray;stroke-width:1"/>
	<line x1="276" y1="549" x2="99" y2="167" style="stroke:gray;stroke-width:1"/>
	<line x1="276" y1="549" x2="812" y2="212" style="stroke:red;stroke-width:1"/>
	<line x1="276" y1="549" x2="301" y2="337" style="stroke:gray;stroke-width:1"/>
	<line x1="276" y1="549" x2="797" y2="568" style="stroke:red;stroke-width:1"/>
	<line x1="99" y1="167" x2="797" y2="568" style="stroke:red;stroke-width:1"/>
	<line x1="99" y1="167" x2="664" y2="596" style="stroke:red;stroke-width:1"/>
	<line x1="99" y1="167" x2="98" y2="411" style="stroke:gray;stroke-width:1"/>
	<line x1="99" y1="167" x2="812" y2="212" style="stroke:red;stroke-width:1"/>
	<line x1="99" y1="167" x2="259" y2="559" style="stroke:gray;stroke-width:1"/>
	<line x1="99" y1="167" x2="101" y2="547" style="stroke:gray;stroke-width:1"/>
	<line x1="99" y1="167" x2="842" y2="372" style="stroke:red;stroke-width:1"/>
	<line x1="812" y1="212" x2="267" y2="411" style="stroke:red;stroke-width:1"/>
	<line x1="812" y1="212" x2="259" y2="559" style="stroke:red;stroke-width:1"/>
	<line x1="812" y1="212" x2="98" y2="411" style="stroke:red;stroke-width:1"/>
	<line x1="812" y1="212" x2="301" y2="337" style="stroke:red;stroke-width:1"/>
	<line x1="812" y1="212" x2="797" y2="568" style="stroke:gray;stroke-width:1"/>
	<line x1="812" y1="212" x2="664" y2="596" style="stroke:gray;stroke-width:1"/>
	<line x1="812" y1="212" x2="101" y2="547" style="stroke:red;stroke-width:1"/>
	<line x1="797" y1="568" x2="267" y2="411" style="stroke:red;stroke-width:1"/>
	<line x1="797" y1="568" x2="101" y2="547" style="stroke:red;stroke-width:1"/>
	<line x1="797" y1="568" x2="664" y2="596" style="stroke:gray;stroke-width:1"/>
	<line x1="797" y1="568" x2="259" y2="559" style="stroke:red;stroke-width:1"/>
	<line x1="842" y1="372" x2="101" y2="547" style="stroke:red;stroke-width:1"/>
	<line x1="842" y1="372" x2="259" y2="559" style="stroke:red;stroke-width:1"/>
	<line x1="842" y1="372" x2="98" y2="411" style="stroke:red;stroke-width:1"/>
	<line x1="842" y1="372" x2="267" y2="411" style="stroke:red;stroke-width:1"/>
	<line x1="842" y1="372" x2="664" y2="596" style="stroke:gray;stroke-width:1"/>
	<line x1="101" y1="547" x2="664" y2="596" style="stroke:red;stroke-width:1"/>
	<line x1="101" y1="547" x2="267" y2="411" style="stroke:gray;stroke-width:1"/>
	<line x1="101" y1="547" x2="301" y2="337" style="stroke:gray;stroke-width:1"/>
	<line x1="101" y1="547" x2="259" y2="559" style="stroke:gray;stroke-width:1"/>
	<line x1="267" y1="411" x2="664" y2="596" style="stroke:red;stroke-width:1"/>
	<line x1="267" y1="411" x2="98" y2="411" style="stroke:gray;stroke-width:1"/>
	<line x1="267" y1="411" x2="259" y2="559" style="stroke:gray;stroke-width:1"/>
	<line x1="259" y1="559" x2="301" y2="337" style="stroke:gray;stroke-width:1"/>
	<line x1="259" y1="559" x2="98" y2="411" style="stroke:gray;stroke-width:1"/>
	<line x1="98" y1="411" x2="664" y2="596" style="stroke:red;stroke-width:1"/>
	<line x1="98" y1="411" x2="301" y2="337" style="stroke:gray;stroke-width:1"/>
	<line x1="664" y1="596" x2="301" y2="337" style="stroke:red;stroke-width:1"/>
</svg>